<svg width="46" height="46" viewBox="0 0 46 46" fill="none" xmlns="http://www.w3.org/2000/svg">
<g clip-path="url(#clip0_549_13)">
<path d="M24 4.34302C19.99 4.34757 16.1455 5.94255 13.31 8.77805C10.4745 11.6136 8.87955 15.458 8.875 19.468C8.875 23.495 10.4906 27.9621 13.1942 31.4133C15.2705 34.0619 17.7489 35.8821 20.3975 36.7569L18.6117 40.9266C18.5222 41.1357 18.4859 41.3637 18.5061 41.5903C18.5263 41.8169 18.6024 42.0349 18.7276 42.2248C18.8528 42.4147 19.0232 42.5706 19.2234 42.6785C19.4237 42.7864 19.6475 42.8429 19.875 42.843L28.125 42.843C28.3525 42.8429 28.5763 42.7864 28.7766 42.6785C28.9768 42.5706 29.1472 42.4147 29.2724 42.2248C29.3976 42.0349 29.4737 41.8169 29.4939 41.5903C29.5141 41.3637 29.4778 41.1357 29.3883 40.9266L27.6094 36.7569C30.2563 35.8855 32.7364 34.0619 34.8127 31.4133C37.5094 27.9621 39.125 23.495 39.125 19.468C39.1205 15.458 37.5255 11.6136 34.69 8.77805C31.8545 5.94255 28.01 4.34757 24 4.34302ZM32.4769 19.4491C32.4019 19.4613 32.326 19.4676 32.25 19.468C31.925 19.4676 31.6106 19.352 31.3627 19.1419C31.1147 18.9317 30.9493 18.6405 30.8956 18.3199C30.6414 16.8891 29.9541 15.5708 28.9265 14.5433C27.8989 13.5157 26.5806 12.8283 25.1498 12.5741C24.9704 12.5458 24.7984 12.4822 24.6437 12.387C24.489 12.2919 24.3547 12.167 24.2485 12.0196C24.1423 11.8722 24.0664 11.7053 24.0251 11.5284C23.9838 11.3515 23.978 11.1682 24.008 10.989C24.038 10.8099 24.1031 10.6384 24.1997 10.4846C24.2963 10.3308 24.4225 10.1976 24.5708 10.0928C24.7192 9.98805 24.8868 9.91369 25.0641 9.87405C25.2414 9.83441 25.4247 9.83029 25.6036 9.86192C27.597 10.2156 29.4336 11.173 30.8652 12.6045C32.2967 14.0361 33.2541 15.8728 33.6078 17.8661C33.6376 18.0443 33.6319 18.2267 33.5912 18.4027C33.5505 18.5787 33.4754 18.745 33.3704 18.892C33.2654 19.039 33.1324 19.1639 32.9791 19.2595C32.8258 19.3551 32.6551 19.4195 32.4769 19.4491Z" fill="#FFEBA5"/>
</g>
<g clip-path="url(#clip1_549_13)">
<path d="M18.8571 35.9538L19.0716 35.453L18.5543 35.2822C16.0149 34.4434 13.6142 32.6899 11.5877 30.1049C8.94665 26.7334 7.37507 22.3733 7.375 18.4683C7.37948 14.5908 8.92178 10.8734 11.6636 8.13161C14.4053 5.38987 18.1226 3.84757 22 3.84302C25.8774 3.84757 29.5947 5.38987 32.3364 8.1316C35.0783 10.8735 36.6206 14.591 36.625 18.4686C36.6248 22.3733 35.0534 26.7333 32.4192 30.1049C30.3925 32.6901 27.9902 34.4467 25.453 35.282L24.9358 35.4523L25.1495 35.9531L26.9284 40.1228L26.9287 40.1235C26.9857 40.2565 27.0088 40.4017 26.9959 40.5458C26.983 40.69 26.9346 40.8287 26.8549 40.9496C26.7752 41.0704 26.6668 41.1697 26.5394 41.2383C26.412 41.307 26.2695 41.3429 26.1248 41.343L17.8752 41.343C17.7305 41.3429 17.588 41.307 17.4606 41.2383C17.3332 41.1697 17.2248 41.0704 17.1451 40.9496C17.0654 40.8287 17.017 40.69 17.0041 40.5458C16.9912 40.4017 17.0143 40.2565 17.0713 40.1235L17.0713 40.1235L18.8571 35.9538ZM30.557 18.9427L30.5588 18.9424C30.8018 18.902 31.0345 18.8141 31.2436 18.6838C31.4527 18.5534 31.634 18.3831 31.7772 18.1827C31.9205 17.9822 32.0228 17.7555 32.0783 17.5154C32.1339 17.2754 32.1416 17.0268 32.101 16.7838L32.101 16.7838L32.1001 16.7788C31.7285 14.6846 30.7227 12.755 29.2188 11.251C27.7148 9.74701 25.7852 8.74121 23.6909 8.36961L23.6907 8.36956C23.4468 8.32643 23.1967 8.33205 22.955 8.3861C22.7133 8.44015 22.4847 8.54155 22.2824 8.68446C22.08 8.82737 21.9081 9.00894 21.7763 9.2187C21.6446 9.42845 21.5557 9.66223 21.5148 9.90653C21.474 10.1508 21.4819 10.4008 21.5382 10.642C21.5945 10.8832 21.698 11.1109 21.8428 11.3119C21.9876 11.5128 22.1707 11.6831 22.3817 11.8129C22.5912 11.9418 22.8239 12.0282 23.0667 12.0672C24.395 12.3041 25.6188 12.9427 26.5729 13.8968C27.5276 14.8515 28.1663 16.0761 28.403 17.4052C28.4766 17.8413 28.702 18.2373 29.0393 18.5233C29.3774 18.8099 29.8061 18.9674 30.2494 18.968L30.2527 18.968C30.3546 18.9675 30.4564 18.959 30.557 18.9427Z" stroke="black"/>
</g>
<defs>
<clipPath id="clip0_549_13">
<rect width="44" height="44" fill="white" transform="translate(2 1.59302)"/>
</clipPath>
<clipPath id="clip1_549_13">
<rect width="44" height="44" fill="white" transform="translate(0 0.593018)"/>
</clipPath>
</defs>
</svg>
